<svg width="14" height="13" viewBox="0 0 14 13" fill="none" xmlns="http://www.w3.org/2000/svg">
<path d="M10.594 0.840296L6.99651 4.43774L3.40206 0.843286C2.83309 0.274323 1.91273 0.27208 1.34377 0.841042C0.774809 1.41001 0.777301 2.33011 1.34651 2.89933L4.94321 6.49603L1.34402 10.0952C0.775059 10.6642 0.773813 11.588 1.34327 12.157C1.62738 12.4416 2.00295 12.5874 2.37528 12.5874C2.74836 12.5876 3.12343 12.4483 3.40754 12.1642L7.00947 8.56229L10.6012 12.154C10.8858 12.4386 11.2564 12.5834 11.6287 12.5829C12.0015 12.5829 12.3734 12.4418 12.658 12.1572C13.2267 11.5885 13.2257 10.6669 12.657 10.0982L9.06502 6.50625L12.6625 2.9088C13.2314 2.33984 13.2274 1.41324 12.6582 0.844532C12.0893 0.276068 11.1624 0.271832 10.594 0.840296Z" fill="white"/>
</svg>
